# Blender 4.1.1
# www.blender.org
mtllib box.mtl
o Cube
v 1.000000 1.000000 -1.000000
v 1.000000 -1.000000 -1.000000
v 1.000000 1.000000 1.000000
v 1.000000 -1.000000 1.000000
v -1.000000 1.000000 -1.000000
v -1.000000 -1.000000 -1.000000
v -1.000000 1.000000 1.000000
v -1.000000 -1.000000 1.000000
vn -0.0000 1.0000 -0.0000
vn -0.0000 -0.0000 1.0000
vn -1.0000 -0.0000 -0.0000
vn -0.0000 -1.0000 -0.0000
vn 1.0000 -0.0000 -0.0000
vn -0.0000 -0.0000 -1.0000
vt -0.002993 -0.003003
vt 1.001214 -0.003003
vt 1.001214 1.001204
vt -0.002993 1.001204
vt 0.005642 -0.000615
vt 1.001476 -0.000615
vt 1.001476 0.995219
vt 0.005641 0.995219
vt 0.989771 0.997807
vt -0.000447 0.997807
vt -0.000447 0.007589
vt 0.989771 0.007589
vt 0.001402 0.001393
vt 0.996819 0.001393
vt 0.996819 0.996809
vt 0.001402 0.996809
vt -0.000562 0.009273
vt 0.989886 0.009273
vt 0.989886 0.999720
vt -0.000562 0.999720
vt -0.000064 0.004413
vt 0.996505 0.004413
vt 0.996505 1.000983
vt -0.000064 1.000983
s 0
usemtl Material
f 1/1/1 5/2/1 7/3/1 3/4/1
f 4/5/2 3/6/2 7/7/2 8/8/2
f 8/9/3 7/10/3 5/11/3 6/12/3
f 6/13/4 2/14/4 4/15/4 8/16/4
f 2/17/5 1/18/5 3/19/5 4/20/5
f 6/21/6 5/22/6 1/23/6 2/24/6
